<?xml version="1.0" encoding="UTF-8"?><svg xmlns="http://www.w3.org/2000/svg" xmlns:xlink="http://www.w3.org/1999/xlink" height="248.0" preserveAspectRatio="xMidYMid meet" version="1.0" viewBox="85.0 87.1 255.1 248.0" width="255.1" zoomAndPan="magnify"><g><g id="change1_1"><path d="M156.09,169.11c-1.67-1.83-4.25-2.7-5.69-0.19c-2.08,3.62-1.87,8.45-1.56,12.45 c0.25,3.23,0.65,6.47,1.49,9.61c0.73,2.72,1.73,6.45,4.15,8.15c0.55,0.39,1.31,0.77,2,0.91c0.38,0.08,2.7,0.12,1.92-0.88" fill="#fbcb98"/></g><g id="change1_2"><path d="M268.92,169.11c1.67-1.83,4.25-2.7,5.69-0.19c2.08,3.62,1.87,8.45,1.56,12.45 c-0.25,3.23-0.65,6.47-1.49,9.61c-0.73,2.72-1.73,6.45-4.15,8.15c-0.55,0.39-1.31,0.77-2,0.91c-0.38,0.08-2.7,0.12-1.92-0.88" fill="#fbcb98"/></g><g id="change1_3"><path d="M338.19,335.03c0.66-0.74,1.32-1.48,1.97-2.23c-7.59-19.4-23.71-34.88-44.51-41.26l-33.37-12.32 c-13.41-4.39-14.12-12.77-14.12-26.87v-29.96h-71.12v29.98c0,14.1,0.61,21.5-12.78,25.9l-34.65,13.31 c-20.81,6.35-36.95,21.83-44.57,41.23c0.64,0.75,1.3,1.48,1.96,2.22H338.19z" fill="#fbcb98"/></g><g id="change2_1"><path d="M338.19,335.03c0.66-0.74,1.32-1.48,1.97-2.23c-7.59-19.4-23.71-34.88-44.51-41.26l-33.37-12.32 c-2.92-0.96-5.23-2.12-7.06-3.48c-9.14,5.49-42.85,45.85-42.85,45.85s-26-35.51-39.62-48.04c-1.88,1.88-4.6,3.43-8.5,4.72 l-34.65,13.31c-20.81,6.35-36.95,21.83-44.57,41.23c0.64,0.75,1.3,1.48,1.96,2.22H338.19z" fill="#fab632"/></g><g id="change1_4"><path d="M269.21,163c-0.14-40.16-24.72-69-56.5-69c-0.02,0-0.04,0-0.06,0c-0.02,0-0.04,0-0.06,0 c-31.78,0-56.36,28.84-56.5,69c-0.07,18.31,0.56,30.37,2.43,43.65c5.79,41.31,43.81,52.89,54.08,52.89 c12.58,0,48.41-11.58,54.2-52.89C268.65,193.37,269.28,181.31,269.21,163z" fill="#fbcb98"/></g><g id="change3_1"><path d="M257.29,208.86c-6.05,6.46-14.03,9.8-23.71,4.45c-2.83-1.57-5.25-3.81-8.08-5.39 c-7.79-4.35-17.76-2.98-25.64,1.21c-6.05,3.21-12.43,8.47-19.76,6.79c-6.41-1.47-11.04-7.3-13.84-12.88 c-5.29-10.54-8.58-21.46-10.16-32.7c0.12,14.36,0.81,24.89,2.41,36.32c5.79,41.31,43.81,52.89,54.08,52.89 c12.58,0,48.41-11.58,54.2-52.89c0.86-6.14,1.46-12.03,1.84-18.39C266.48,195.01,262.64,203.15,257.29,208.86z" fill="#9f533a"/></g><g id="change3_2"><path d="M269.21,163c-0.06-17.97-5.03-33.65-13.33-45.52c-1.97,4.5-3.97,8.99-6.09,13.43 c0.15,12.38,0.18,26.13,8.24,36.17c4,4.98,8.76,8.58,10.25,15.17c0.28,1.23,0.29,2.63,0.21,4.1c0.1-0.13,0.19-0.27,0.28-0.41 C269.11,179.19,269.25,171.83,269.21,163z" fill="#9f533a"/></g><g id="change3_3"><path d="M163.81,176.36c0.14-0.16,0.28-0.31,0.43-0.47c2.77-2.93,6.52-4.88,8.91-8.13 c5.11-6.95,2.33-17.22,6.48-24.78c0.7-1.27,1.62-2.48,2.9-3.18c2.51-1.38,5.59-0.52,8.34,0.28c14.31,4.16,29.39,5.67,44.25,4.43 c14.78-1.24,27.99-10.7,38.37-20.85c6.15-6.01,12.24-13.63,11.31-22.18c-7.02,5.55-17.17,5.1-25.63,2.18 c-8.46-2.92-16.06-7.94-24.48-10.98c-15.52-5.61-41.57-1.81-57.84,11.33c-20.15,16.27-20.67,34.36-20.76,58.99 c-0.04,10.6,0.31,21.11,0.96,31.68C158.17,188.19,159.48,181.29,163.81,176.36z" fill="#9f533a"/></g></g></svg>