<?xml version="1.0" encoding="UTF-8"?><svg xmlns="http://www.w3.org/2000/svg" xmlns:xlink="http://www.w3.org/1999/xlink" height="244.6" preserveAspectRatio="xMidYMid meet" version="1.0" viewBox="85.5 90.1 254.2 244.6" width="254.2" zoomAndPan="magnify"><g><g id="change1_1"><path d="M156.2,171.77c-1.67-1.82-4.24-2.7-5.68-0.19c-2.08,3.61-1.86,8.43-1.56,12.43 c0.24,3.23,0.65,6.46,1.49,9.59c0.73,2.71,1.73,6.44,4.14,8.13c0.55,0.39,1.31,0.77,2,0.91c0.38,0.08,2.69,0.12,1.91-0.88" fill="#f5a065"/></g><g id="change1_2"><path d="M268.8,171.77c1.67-1.82,4.24-2.7,5.68-0.19c2.08,3.61,1.86,8.43,1.56,12.43 c-0.24,3.23-0.65,6.46-1.49,9.59c-0.73,2.71-1.73,6.44-4.14,8.13c-0.55,0.39-1.31,0.77-2,0.91c-0.38,0.08-2.69,0.12-1.91-0.88" fill="#f5a065"/></g><g id="change2_1"><path d="M339.71,334.68c-7.64-19.16-23.64-34.43-44.24-40.74l-33.3-12.29c-13.38-4.38-14.09-12.74-14.09-26.82 v-29.89H177.1v29.92c0,14.07,0.6,21.45-12.75,25.85l-34.57,13.28c-20.61,6.29-36.61,21.55-44.28,40.7H339.71z" fill="#e89860"/></g><g id="change3_1"><path d="M339.71,334.68c-7.64-19.16-23.64-34.43-44.24-40.74l-33.3-12.29c-2.92-0.96-5.22-2.12-7.05-3.47 c-9.12,5.48-42.76,45.76-42.76,45.76s-25.94-35.44-39.54-47.94c-1.88,1.88-4.59,3.42-8.48,4.71l-34.57,13.28 c-20.61,6.29-36.61,21.55-44.28,40.7H339.71z" fill="#fff"/></g><g id="change4_1"><path d="M339.71,334.68c-7.64-19.16-23.64-34.43-44.24-40.74l-33.3-12.29c-2.92-0.96-5.22-2.12-7.05-3.47 c-1.11,0.67-2.58,1.85-4.3,3.41v53.1H339.71z" fill="#092838"/></g><g id="change4_2"><path d="M175.63,334.68v-55.97c-0.98-0.99-1.91-1.9-2.8-2.72c-1.88,1.88-4.59,3.42-8.48,4.71l-34.57,13.28 c-20.61,6.29-36.61,21.55-44.28,40.7H175.63z" fill="#092838"/></g><g id="change1_3"><path d="M269.09,165.68c-0.14-40.07-25.01-61.38-56.73-61.38c-0.02,0,0.02,0,0,0s-2.4-2.62-2.41-2.62 c-31.71,0-53.6,23.93-53.75,64c-0.07,18.27,0.56,30.3,2.42,43.56c5.78,41.22,43.72,52.77,53.97,52.77 c12.55,0,48.31-11.55,54.08-52.77C268.53,195.98,269.16,183.95,269.09,165.68z" fill="#f5a065"/></g><g id="change5_1"><path d="M257.91,211.95c-11.05,15.27-27.92,25.74-47.89,23.19c-14.91-1.9-28.35-10.12-38.56-20.9 c-8.62-9.1-15.13-28.74-15.24-41.23c0.12,14.33,0.81,24.84,2.4,36.24c5.78,41.22,43.72,52.77,53.97,52.77 c12.55,0,48.31-11.55,54.08-52.77c0.86-6.13,1.45-12.01,1.84-18.35C266.12,198.35,262.52,205.56,257.91,211.95z" fill="#dadada"/></g><g id="change5_2"><path d="M269.09,165.68c-0.06-17.93-5.02-33.58-13.3-45.43c-1.96,4.49-3.96,8.97-6.08,13.4 c0.15,12.35,0.18,26.08,8.22,36.09c3.99,4.97,8.74,8.56,10.23,15.14c0.28,1.23,0.29,2.63,0.21,4.09 c0.1-0.13,0.19-0.27,0.28-0.41C268.99,181.83,269.12,174.48,269.09,165.68z" fill="#dadada"/></g><g id="change5_3"><path d="M163.91,179.01c0.14-0.16,0.28-0.31,0.43-0.47c2.76-2.93,6.51-4.87,8.89-8.11 c5.1-6.93,2.32-17.18,6.47-24.72c0.7-1.27,1.62-2.47,2.89-3.17c5.38-2.97,12.95,3.17,18.16,4.41 c7.12,1.7,14.73,1.44,21.68-0.91c6.27-2.11,12.99-5.84,19.04-3.18c2.91,1.28,5.07,3.87,7.95,5.23 c5.91,2.8,13.94-1.37,15.05-7.82c0.54-3.15-0.3-6.64,1.28-9.42c0.75-1.31,1.95-2.3,3.17-3.2c2.7-2,5.63-3.8,7.72-6.42 s3.2-6.39,1.67-9.38c-1.48-2.9-4.91-4.22-8.14-4.64c-3.22-0.42-6.56-0.2-9.67-1.14c-7.34-2.22-11.89-10.4-19.4-11.98 c-5.07-1.07-10.04,1.6-14.99,0.96c-5.09-0.66-9.66-3.87-14.96-4.4c-5.29-0.53-11.04,0.75-14.71,4.6 c-2.4,2.52-3.78,5.95-6.47,8.15c-6.3,5.17-16.78,1.53-23.13,6.65c-3.6,2.9-4.8,7.98-4.29,12.57c0.27,2.44,0.94,5.04-0.09,7.27 c-0.72,1.57-2.17,2.67-3.36,3.93c-8.39,8.93-2.85,21.42-2.89,31.87c-0.04,10.58,0.31,21.06,0.96,31.62 C158.28,190.8,159.59,183.93,163.91,179.01z" fill="#dadada"/></g><g fill="#fff" id="change3_2"><path d="M197.6,205.99c-5.67,1.81-9.29,5.93-13.5,9.83c-4.26,3.94-9.27,4.47-14.85,3.8c2.45,2.91,5.22,5.66,8.6,7.4 c11.25,5.81,43.98,3.88,36.36-16.04C211.83,204.77,203.05,204.25,197.6,205.99z" fill="inherit"/><path d="M227.7,205.99c5.67,1.81,9.29,5.93,13.5,9.83c4.26,3.94,9.27,4.47,14.85,3.8c-2.45,2.91-5.22,5.66-8.6,7.4 c-11.25,5.81-43.98,3.88-36.36-16.04C213.47,204.77,222.25,204.25,227.7,205.99z" fill="inherit"/></g></g></svg>